<mxfile host="app.diagrams.net" modified="2023-12-18T18:20:40.487Z" agent="Mozilla/5.0 (Windows NT 10.0; Win64; x64) AppleWebKit/537.36 (KHTML, like Gecko) Chrome/120.0.0.0 Safari/537.36" etag="7oRU73G_gwa4DRRUbEbJ" version="22.1.11" type="device">
  <diagram name="Seite-1" id="LL14OvgYg-BKjeFiTKRa">
    <mxGraphModel dx="2261" dy="746" grid="1" gridSize="10" guides="1" tooltips="1" connect="1" arrows="1" fold="1" page="1" pageScale="1" pageWidth="827" pageHeight="1169" math="0" shadow="0">
      <root>
        <mxCell id="0" />
        <mxCell id="1" parent="0" />
        <mxCell id="VNylfSBX1K5dvDVhwrZL-3" value="main.c&lt;br&gt;- Initialisiere HW&lt;br&gt;- Endlose Schleife (Zeitzone, DCF77 Signal, clockEvent)" style="rounded=0;whiteSpace=wrap;html=1;" parent="1" vertex="1">
          <mxGeometry x="280" y="90" width="280" height="100" as="geometry" />
        </mxCell>
        <mxCell id="VNylfSBX1K5dvDVhwrZL-5" value="lcd.asm&lt;br&gt;LCD-Treiber" style="rounded=0;whiteSpace=wrap;html=1;" parent="1" vertex="1">
          <mxGeometry x="370" y="430" width="140" height="80" as="geometry" />
        </mxCell>
        <mxCell id="VNylfSBX1K5dvDVhwrZL-6" value="ticker.asm&lt;br&gt;Zeitsignalunterbrechung" style="rounded=0;whiteSpace=wrap;html=1;" parent="1" vertex="1">
          <mxGeometry x="90" y="430" width="130" height="80" as="geometry" />
        </mxCell>
        <mxCell id="VNylfSBX1K5dvDVhwrZL-7" value="led.asm&lt;br&gt;LED Treiber" style="rounded=0;whiteSpace=wrap;html=1;" parent="1" vertex="1">
          <mxGeometry x="610" y="430" width="140" height="80" as="geometry" />
        </mxCell>
        <mxCell id="VNylfSBX1K5dvDVhwrZL-38" value="initTicker()" style="text;html=1;strokeColor=none;fillColor=none;align=center;verticalAlign=middle;whiteSpace=wrap;rounded=0;rotation=270;" parent="1" vertex="1">
          <mxGeometry x="120" y="235" width="60" height="30" as="geometry" />
        </mxCell>
        <mxCell id="VNylfSBX1K5dvDVhwrZL-47" value="&lt;b&gt;&lt;font style=&quot;font-size: 13px;&quot;&gt;Programmlogik und Benutzerschnittstelle&lt;/font&gt;&lt;/b&gt;" style="text;html=1;strokeColor=none;fillColor=none;align=center;verticalAlign=middle;whiteSpace=wrap;rounded=0;" parent="1" vertex="1">
          <mxGeometry x="360" width="130" height="30" as="geometry" />
        </mxCell>
        <mxCell id="VNylfSBX1K5dvDVhwrZL-49" value="&lt;b&gt;&lt;font style=&quot;font-size: 13px;&quot;&gt;HW-Treiber&lt;/font&gt;&lt;/b&gt;" style="text;html=1;strokeColor=none;fillColor=none;align=center;verticalAlign=middle;whiteSpace=wrap;rounded=0;" parent="1" vertex="1">
          <mxGeometry x="390" y="330" width="80" height="30" as="geometry" />
        </mxCell>
        <mxCell id="XX2IU6tDLI5k3P0KgU-E-2" value="" style="endArrow=classic;html=1;rounded=0;exitX=0;exitY=0.75;exitDx=0;exitDy=0;entryX=0.5;entryY=0;entryDx=0;entryDy=0;" edge="1" parent="1" source="VNylfSBX1K5dvDVhwrZL-3" target="VNylfSBX1K5dvDVhwrZL-6">
          <mxGeometry width="50" height="50" relative="1" as="geometry">
            <mxPoint x="410" y="410" as="sourcePoint" />
            <mxPoint x="120" y="180" as="targetPoint" />
            <Array as="points">
              <mxPoint x="155" y="165" />
            </Array>
          </mxGeometry>
        </mxCell>
        <mxCell id="XX2IU6tDLI5k3P0KgU-E-3" value="" style="endArrow=classic;html=1;rounded=0;exitX=0;exitY=0.5;exitDx=0;exitDy=0;entryX=0.5;entryY=0;entryDx=0;entryDy=0;" edge="1" parent="1" source="VNylfSBX1K5dvDVhwrZL-3" target="XX2IU6tDLI5k3P0KgU-E-7">
          <mxGeometry width="50" height="50" relative="1" as="geometry">
            <mxPoint x="410" y="410" as="sourcePoint" />
            <mxPoint x="460" y="360" as="targetPoint" />
            <Array as="points">
              <mxPoint x="60" y="140" />
            </Array>
          </mxGeometry>
        </mxCell>
        <mxCell id="XX2IU6tDLI5k3P0KgU-E-4" value="" style="endArrow=classic;html=1;rounded=0;exitX=0.068;exitY=0.99;exitDx=0;exitDy=0;entryX=0;entryY=0.5;entryDx=0;entryDy=0;exitPerimeter=0;" edge="1" parent="1" source="VNylfSBX1K5dvDVhwrZL-3" target="VNylfSBX1K5dvDVhwrZL-5">
          <mxGeometry width="50" height="50" relative="1" as="geometry">
            <mxPoint x="410" y="410" as="sourcePoint" />
            <mxPoint x="460" y="360" as="targetPoint" />
            <Array as="points">
              <mxPoint x="300" y="470" />
            </Array>
          </mxGeometry>
        </mxCell>
        <mxCell id="XX2IU6tDLI5k3P0KgU-E-5" value="initLCD()" style="text;html=1;strokeColor=none;fillColor=none;align=center;verticalAlign=middle;whiteSpace=wrap;rounded=0;rotation=270;" vertex="1" parent="1">
          <mxGeometry x="260" y="400" width="60" height="30" as="geometry" />
        </mxCell>
        <mxCell id="XX2IU6tDLI5k3P0KgU-E-7" value="clock.c&lt;br&gt;Zeitsteuerung" style="rounded=0;whiteSpace=wrap;html=1;" vertex="1" parent="1">
          <mxGeometry y="270" width="120" height="60" as="geometry" />
        </mxCell>
        <mxCell id="XX2IU6tDLI5k3P0KgU-E-9" value="initClock()&lt;br&gt;&lt;div style=&quot;&quot;&gt;&lt;span style=&quot;background-color: initial;&quot;&gt;processEventClock()&lt;/span&gt;&lt;/div&gt;&lt;div style=&quot;&quot;&gt;&lt;span style=&quot;background-color: initial;&quot;&gt;displayTimeClock()&lt;/span&gt;&lt;/div&gt;" style="text;html=1;strokeColor=none;fillColor=none;align=center;verticalAlign=middle;whiteSpace=wrap;rounded=0;" vertex="1" parent="1">
          <mxGeometry x="140" y="100" width="60" height="30" as="geometry" />
        </mxCell>
        <mxCell id="XX2IU6tDLI5k3P0KgU-E-10" value="dcf77.c&lt;br&gt;Zeitsignal Steuerung" style="rounded=0;whiteSpace=wrap;html=1;" vertex="1" parent="1">
          <mxGeometry x="707" y="220" width="120" height="60" as="geometry" />
        </mxCell>
        <mxCell id="XX2IU6tDLI5k3P0KgU-E-11" value="" style="endArrow=classic;html=1;rounded=0;exitX=1;exitY=0.25;exitDx=0;exitDy=0;entryX=0.5;entryY=0;entryDx=0;entryDy=0;" edge="1" parent="1" source="VNylfSBX1K5dvDVhwrZL-3" target="XX2IU6tDLI5k3P0KgU-E-10">
          <mxGeometry width="50" height="50" relative="1" as="geometry">
            <mxPoint x="410" y="410" as="sourcePoint" />
            <mxPoint x="460" y="360" as="targetPoint" />
            <Array as="points">
              <mxPoint x="767" y="115" />
            </Array>
          </mxGeometry>
        </mxCell>
        <mxCell id="XX2IU6tDLI5k3P0KgU-E-12" value="initDCF77()&lt;br&gt;processEventsDCF77()&lt;br&gt;displayDateDcf77()" style="text;html=1;strokeColor=none;fillColor=none;align=center;verticalAlign=middle;whiteSpace=wrap;rounded=0;" vertex="1" parent="1">
          <mxGeometry x="640" y="80" width="60" height="30" as="geometry" />
        </mxCell>
        <mxCell id="XX2IU6tDLI5k3P0KgU-E-17" value="" style="endArrow=none;dashed=1;html=1;dashPattern=1 3;strokeWidth=2;rounded=0;" edge="1" parent="1">
          <mxGeometry width="50" height="50" relative="1" as="geometry">
            <mxPoint y="360" as="sourcePoint" />
            <mxPoint x="830" y="360" as="targetPoint" />
          </mxGeometry>
        </mxCell>
        <mxCell id="XX2IU6tDLI5k3P0KgU-E-18" value="" style="endArrow=classic;html=1;rounded=0;entryX=0.25;entryY=0;entryDx=0;entryDy=0;" edge="1" parent="1" target="VNylfSBX1K5dvDVhwrZL-7">
          <mxGeometry width="50" height="50" relative="1" as="geometry">
            <mxPoint x="560" y="160" as="sourcePoint" />
            <mxPoint x="460" y="360" as="targetPoint" />
            <Array as="points">
              <mxPoint x="645" y="160" />
            </Array>
          </mxGeometry>
        </mxCell>
        <mxCell id="XX2IU6tDLI5k3P0KgU-E-19" value="initLED()" style="text;html=1;strokeColor=none;fillColor=none;align=center;verticalAlign=middle;whiteSpace=wrap;rounded=0;rotation=270;" vertex="1" parent="1">
          <mxGeometry x="610" y="230" width="60" height="30" as="geometry" />
        </mxCell>
        <mxCell id="XX2IU6tDLI5k3P0KgU-E-20" value="" style="shape=link;html=1;rounded=0;" edge="1" parent="1">
          <mxGeometry relative="1" as="geometry">
            <mxPoint x="280" y="50" as="sourcePoint" />
            <mxPoint x="360" y="50" as="targetPoint" />
          </mxGeometry>
        </mxCell>
        <mxCell id="XX2IU6tDLI5k3P0KgU-E-22" value="" style="endArrow=classic;html=1;rounded=0;exitX=0.25;exitY=0;exitDx=0;exitDy=0;exitPerimeter=0;" edge="1" parent="1" source="XX2IU6tDLI5k3P0KgU-E-7">
          <mxGeometry width="50" height="50" relative="1" as="geometry">
            <mxPoint x="30" y="260" as="sourcePoint" />
            <mxPoint x="280" y="50" as="targetPoint" />
            <Array as="points">
              <mxPoint x="30" y="50" />
            </Array>
          </mxGeometry>
        </mxCell>
        <mxCell id="XX2IU6tDLI5k3P0KgU-E-23" value="" style="endArrow=classic;html=1;rounded=0;exitX=0.25;exitY=0;exitDx=0;exitDy=0;" edge="1" parent="1" source="VNylfSBX1K5dvDVhwrZL-3">
          <mxGeometry width="50" height="50" relative="1" as="geometry">
            <mxPoint x="410" y="210" as="sourcePoint" />
            <mxPoint x="350" y="50" as="targetPoint" />
          </mxGeometry>
        </mxCell>
        <mxCell id="XX2IU6tDLI5k3P0KgU-E-24" value="timeZone&lt;br&gt;clockEvent" style="text;html=1;strokeColor=none;fillColor=none;align=center;verticalAlign=middle;whiteSpace=wrap;rounded=0;" vertex="1" parent="1">
          <mxGeometry x="290" y="20" width="60" height="30" as="geometry" />
        </mxCell>
        <mxCell id="XX2IU6tDLI5k3P0KgU-E-26" value="" style="shape=link;html=1;rounded=0;" edge="1" parent="1">
          <mxGeometry relative="1" as="geometry">
            <mxPoint x="480" y="50" as="sourcePoint" />
            <mxPoint x="560" y="50" as="targetPoint" />
          </mxGeometry>
        </mxCell>
        <mxCell id="XX2IU6tDLI5k3P0KgU-E-27" value="dcf77Event" style="text;html=1;strokeColor=none;fillColor=none;align=center;verticalAlign=middle;whiteSpace=wrap;rounded=0;" vertex="1" parent="1">
          <mxGeometry x="490" y="20" width="60" height="30" as="geometry" />
        </mxCell>
        <mxCell id="XX2IU6tDLI5k3P0KgU-E-28" value="" style="endArrow=classic;html=1;rounded=0;exitX=0.75;exitY=0;exitDx=0;exitDy=0;entryX=0;entryY=1;entryDx=0;entryDy=0;entryPerimeter=0;" edge="1" parent="1" source="VNylfSBX1K5dvDVhwrZL-3" target="XX2IU6tDLI5k3P0KgU-E-27">
          <mxGeometry width="50" height="50" relative="1" as="geometry">
            <mxPoint x="410" y="210" as="sourcePoint" />
            <mxPoint x="490" y="60" as="targetPoint" />
          </mxGeometry>
        </mxCell>
        <mxCell id="XX2IU6tDLI5k3P0KgU-E-29" value="" style="endArrow=classic;html=1;rounded=0;exitX=0.75;exitY=0;exitDx=0;exitDy=0;" edge="1" parent="1" source="XX2IU6tDLI5k3P0KgU-E-10">
          <mxGeometry width="50" height="50" relative="1" as="geometry">
            <mxPoint x="410" y="210" as="sourcePoint" />
            <mxPoint x="560" y="50" as="targetPoint" />
            <Array as="points">
              <mxPoint x="797" y="50" />
            </Array>
          </mxGeometry>
        </mxCell>
        <mxCell id="XX2IU6tDLI5k3P0KgU-E-31" value="" style="endArrow=classic;html=1;rounded=0;exitX=0.658;exitY=1.033;exitDx=0;exitDy=0;exitPerimeter=0;entryX=0.5;entryY=1;entryDx=0;entryDy=0;" edge="1" parent="1" source="XX2IU6tDLI5k3P0KgU-E-7" target="VNylfSBX1K5dvDVhwrZL-5">
          <mxGeometry width="50" height="50" relative="1" as="geometry">
            <mxPoint x="410" y="310" as="sourcePoint" />
            <mxPoint x="460" y="260" as="targetPoint" />
            <Array as="points">
              <mxPoint x="79" y="540" />
              <mxPoint x="440" y="540" />
            </Array>
          </mxGeometry>
        </mxCell>
        <mxCell id="XX2IU6tDLI5k3P0KgU-E-32" value="writeLine()" style="text;html=1;strokeColor=none;fillColor=none;align=center;verticalAlign=middle;whiteSpace=wrap;rounded=0;" vertex="1" parent="1">
          <mxGeometry x="250" y="520" width="60" height="30" as="geometry" />
        </mxCell>
        <mxCell id="XX2IU6tDLI5k3P0KgU-E-33" value="" style="endArrow=classic;html=1;rounded=0;exitX=0.5;exitY=1;exitDx=0;exitDy=0;entryX=0.5;entryY=1;entryDx=0;entryDy=0;" edge="1" parent="1" source="XX2IU6tDLI5k3P0KgU-E-7" target="XX2IU6tDLI5k3P0KgU-E-10">
          <mxGeometry width="50" height="50" relative="1" as="geometry">
            <mxPoint x="410" y="410" as="sourcePoint" />
            <mxPoint x="460" y="360" as="targetPoint" />
            <Array as="points">
              <mxPoint x="60" y="570" />
              <mxPoint x="767" y="570" />
            </Array>
          </mxGeometry>
        </mxCell>
        <mxCell id="XX2IU6tDLI5k3P0KgU-E-34" value="sampleSignalDCF77()" style="text;html=1;strokeColor=none;fillColor=none;align=center;verticalAlign=middle;whiteSpace=wrap;rounded=0;" vertex="1" parent="1">
          <mxGeometry x="540" y="550" width="60" height="30" as="geometry" />
        </mxCell>
        <mxCell id="XX2IU6tDLI5k3P0KgU-E-36" value="" style="endArrow=classic;html=1;rounded=0;exitX=0.75;exitY=1;exitDx=0;exitDy=0;entryX=0.25;entryY=1;entryDx=0;entryDy=0;" edge="1" parent="1" source="XX2IU6tDLI5k3P0KgU-E-10" target="XX2IU6tDLI5k3P0KgU-E-7">
          <mxGeometry width="50" height="50" relative="1" as="geometry">
            <mxPoint x="410" y="410" as="sourcePoint" />
            <mxPoint x="460" y="360" as="targetPoint" />
            <Array as="points">
              <mxPoint x="797" y="600" />
              <mxPoint x="30" y="600" />
            </Array>
          </mxGeometry>
        </mxCell>
        <mxCell id="XX2IU6tDLI5k3P0KgU-E-37" value="setClock()" style="text;html=1;strokeColor=none;fillColor=none;align=center;verticalAlign=middle;whiteSpace=wrap;rounded=0;" vertex="1" parent="1">
          <mxGeometry x="400" y="580" width="60" height="30" as="geometry" />
        </mxCell>
        <mxCell id="XX2IU6tDLI5k3P0KgU-E-38" value="" style="endArrow=classic;html=1;rounded=0;exitX=0.125;exitY=1.033;exitDx=0;exitDy=0;exitPerimeter=0;entryX=0.8;entryY=0;entryDx=0;entryDy=0;entryPerimeter=0;" edge="1" parent="1" source="XX2IU6tDLI5k3P0KgU-E-10" target="VNylfSBX1K5dvDVhwrZL-7">
          <mxGeometry width="50" height="50" relative="1" as="geometry">
            <mxPoint x="410" y="410" as="sourcePoint" />
            <mxPoint x="460" y="360" as="targetPoint" />
          </mxGeometry>
        </mxCell>
        <mxCell id="XX2IU6tDLI5k3P0KgU-E-39" value="setLED()&lt;br&gt;clrLED()" style="text;html=1;strokeColor=none;fillColor=none;align=center;verticalAlign=middle;whiteSpace=wrap;rounded=0;rotation=270;" vertex="1" parent="1">
          <mxGeometry x="680" y="310" width="60" height="30" as="geometry" />
        </mxCell>
        <mxCell id="XX2IU6tDLI5k3P0KgU-E-40" value="" style="endArrow=classic;html=1;rounded=0;exitX=0.25;exitY=0;exitDx=0;exitDy=0;entryX=0.75;entryY=1;entryDx=0;entryDy=0;" edge="1" parent="1" source="VNylfSBX1K5dvDVhwrZL-6" target="XX2IU6tDLI5k3P0KgU-E-7">
          <mxGeometry width="50" height="50" relative="1" as="geometry">
            <mxPoint x="410" y="410" as="sourcePoint" />
            <mxPoint x="100" y="390" as="targetPoint" />
            <Array as="points">
              <mxPoint x="123" y="390" />
              <mxPoint x="90" y="390" />
            </Array>
          </mxGeometry>
        </mxCell>
        <mxCell id="XX2IU6tDLI5k3P0KgU-E-41" value="tick10ms()" style="text;html=1;strokeColor=none;fillColor=none;align=center;verticalAlign=middle;whiteSpace=wrap;rounded=0;" vertex="1" parent="1">
          <mxGeometry x="90" y="370" width="60" height="30" as="geometry" />
        </mxCell>
      </root>
    </mxGraphModel>
  </diagram>
</mxfile>
